<?xml version="1.0" standalone="no"?>
<!DOCTYPE svg PUBLIC "-//W3C//DTD SVG 20010904//EN"
 "http://www.w3.org/TR/2001/REC-SVG-20010904/DTD/svg10.dtd">
<svg version="1.0" xmlns="http://www.w3.org/2000/svg"
 width="513.000000pt" height="270.000000pt" viewBox="0 0 513.000000 270.000000"
 preserveAspectRatio="xMidYMid meet">

<g transform="translate(0.000000,270.000000) scale(0.100000,-0.100000)"
fill="#000000" stroke="none">
<path d="M3569 2660 c-394 -62 -733 -288 -939 -625 -190 -310 -239 -700 -135
-1060 97 -333 343 -632 654 -793 117 -61 205 -93 336 -123 131 -29 384 -32
517 -6 476 95 855 427 1008 885 52 156 63 244 57 457 -5 204 -15 256 -76 425
-150 411 -518 726 -966 826 -82 18 -372 27 -456 14z m-391 -1647 l-3 -428 -60
-13 c-33 -7 -100 -11 -150 -9 -77 2 -98 7 -143 32 -64 35 -103 88 -127 170
-22 74 -15 172 15 244 27 61 94 126 146 140 60 17 149 13 209 -8 l55 -19 0
153 c0 168 -5 153 53 164 4 0 6 -191 5 -426z m477 124 c70 -39 75 -59 75 -323
l0 -232 -63 -11 c-139 -24 -255 -5 -301 50 -91 107 -34 259 109 289 36 7 87
10 127 6 l68 -6 0 52 c0 102 -57 147 -169 134 -113 -13 -106 -14 -106 19 0 37
19 43 135 44 71 1 92 -3 125 -22z m548 12 c33 -9 38 -14 33 -32 -3 -12 -6 -27
-6 -34 0 -8 -13 -7 -47 4 -28 8 -72 13 -105 11 -73 -5 -108 -34 -108 -88 0
-48 24 -70 129 -114 138 -60 171 -94 171 -179 0 -56 -32 -105 -85 -132 -51
-25 -221 -28 -271 -5 -28 14 -30 18 -22 47 l8 32 36 -15 c50 -21 172 -21 213
1 41 21 55 57 41 101 -10 30 -25 40 -134 93 -142 69 -161 89 -161 168 0 97 70
153 195 153 41 0 92 -5 113 -11z"/>
<path d="M2886 1086 c-81 -30 -126 -108 -126 -220 0 -100 37 -174 105 -213 33
-19 55 -23 125 -23 143 0 130 -21 130 215 l0 204 -53 19 c-76 29 -135 34 -181
18z"/>
<path d="M3500 849 c-82 -16 -122 -90 -88 -164 19 -43 56 -55 163 -55 l95 0 0
104 c0 58 -3 107 -7 109 -18 11 -122 14 -163 6z"/>
<path d="M1967 1363 c-15 -14 -6 -53 15 -64 18 -10 24 -8 40 11 13 17 15 26 8
41 -10 18 -50 26 -63 12z"/>
<path d="M60 1170 c0 -22 5 -40 11 -40 18 0 38 -64 73 -237 18 -92 44 -195 56
-227 76 -200 265 -200 339 -2 12 33 35 127 52 210 33 170 53 239 75 256 7 7
14 27 14 46 0 32 -1 33 -30 22 -59 -20 -76 -62 -126 -302 -50 -240 -84 -309
-154 -309 -73 0 -110 75 -160 333 -36 183 -68 258 -117 277 l-33 13 0 -40z"/>
<path d="M967 1199 c-86 -21 -153 -83 -184 -173 -25 -72 -25 -261 0 -333 76
-217 365 -243 468 -41 10 21 19 40 19 43 0 3 -15 5 -34 5 -28 0 -38 -6 -56
-34 -60 -98 -198 -111 -281 -27 -36 36 -69 116 -69 168 l0 23 231 0 232 0 -5
83 c-11 171 -95 273 -238 290 -25 3 -62 2 -83 -4z m105 -69 c75 -21 132 -94
145 -185 l6 -45 -197 0 c-223 0 -209 -7 -180 89 19 64 65 117 119 136 49 17
60 18 107 5z"/>
<path d="M1967 1203 c-12 -11 -8 -525 4 -568 18 -66 65 -105 142 -119 37 -7
37 -7 37 27 0 33 -3 35 -46 46 -71 18 -74 31 -74 351 l0 270 -28 0 c-16 0 -32
-3 -35 -7z"/>
<path d="M1625 1190 c-88 -22 -151 -74 -186 -153 -22 -49 -24 -67 -27 -284
l-4 -233 36 0 36 0 0 203 c0 111 5 222 11 247 25 110 90 153 242 158 l97 4 0
34 0 34 -87 -1 c-49 -1 -101 -5 -118 -9z"/>
<path d="M2214 916 c-3 -7 -4 -35 -2 -62 l3 -49 63 -3 62 -3 0 66 0 65 -60 0
c-42 0 -62 -4 -66 -14z"/>
</g>
</svg>
